<svg width="266" height="234" viewBox="0 0 266 234" fill="none" xmlns="http://www.w3.org/2000/svg">
<g clip-path="url(#clip0_102_143)">
<path d="M245.066 27.4414C235.761 16.2985 210.175 0 178.607 0H178.275C150.362 0.166311 128.597 14.8017 122.616 19.2921C115.139 16.1322 87.559 6.31983 55.4928 17.9616C39.3766 23.9488 17.2792 43.9062 8.47342 69.1855C7.97499 70.3497 7.64269 71.6802 7.14425 72.8444C4.65206 79.8294 2.15987 86.9808 1.32914 93.467C-1.49535 118.58 -1.16305 129.723 14.1224 156.499C29.4078 183.109 73.935 203.731 75.7626 204.563C75.9288 204.729 76.261 204.729 76.4272 204.729L80.5808 205.727C83.073 207.224 93.8725 214.043 106.998 219.864C123.114 226.849 139.895 233.834 152.19 233.834C164.983 233.834 168.638 232.503 180.269 224.021C193.893 214.209 202.2 194.917 209.51 177.953L210.507 175.791C212.999 170.303 214.328 169.471 219.977 166.478C224.297 164.149 230.777 160.823 240.912 153.505C241.078 153.339 241.41 153.173 241.576 152.84C242.241 152.009 258.025 132.716 261.846 117.582C270.984 82.3241 265.169 51.0576 245.066 27.4414ZM255.367 116.085C252.044 128.725 238.752 145.855 236.592 148.516C227.122 155.335 221.141 158.495 216.821 160.823C210.673 163.983 207.683 165.646 204.36 173.296L203.363 175.458C196.385 191.591 188.41 210.051 176.281 218.866C165.648 226.516 163.488 227.348 152.024 227.348C141.058 227.348 124.942 220.695 109.49 214.043C107.497 213.211 105.503 212.213 103.509 211.215L114.973 213.876H115.305C116.468 214.043 143.218 217.535 157.839 209.053C170.798 201.569 174.121 188.098 166.645 173.13C163.488 166.977 158.171 165.812 154.184 164.981C149.864 164.149 149.033 163.983 149.365 159.659C150.528 145.19 148.701 137.373 146.209 128.725C144.049 121.241 135.575 112.759 131.089 108.435C131.089 108.269 130.923 108.269 130.923 108.269C130.425 107.77 129.926 107.271 129.428 106.938C129.428 101.616 128.929 84.4861 124.277 76.1706C119.293 67.5224 113.644 63.1983 105.835 62.0341C101.349 61.3689 94.7033 62.8657 88.0574 73.5096C83.9038 79.8294 81.91 100.119 81.5777 104.111C81.0793 104.277 80.5808 104.61 79.9163 104.776L71.4428 108.435C66.4584 103.612 60.6433 99.9531 47.5178 102.947C41.8688 104.277 37.0506 107.271 33.2292 112.094C29.7401 116.418 27.2479 121.74 26.4172 127.727C24.5896 138.87 25.2542 141.032 25.5865 141.864C25.9188 142.695 26.0849 143.36 26.2511 144.192C28.2448 150.345 29.4078 154.171 36.0537 159.493C39.875 162.652 43.3641 163.65 46.687 163.65C50.3423 163.65 53.6652 162.32 57.3204 160.989C72.2735 155.335 74.5996 143.693 74.7657 141.531C75.7626 137.706 79.2517 122.073 75.5965 113.923L82.4085 111.096C86.2298 109.599 87.8913 108.934 92.0449 108.269C93.8725 108.102 108.826 107.437 112.481 108.435C117.465 109.599 124.942 112.759 126.769 113.757C131.422 118.081 138.234 125.399 139.729 130.721C142.221 139.036 143.883 145.855 142.72 159.16C141.889 169.305 148.535 170.802 152.854 171.633C156.676 172.465 159.002 172.964 160.663 176.29C164.817 184.606 167.143 196.081 154.516 203.399C142.221 210.55 118.296 207.723 116.302 207.39L82.7407 199.574C82.7407 199.574 82.7407 199.574 82.5746 199.574L78.2548 198.576C74.2673 196.746 33.3953 176.955 19.9375 153.339C5.1505 127.394 5.31665 117.915 7.97499 94.4648C8.63957 88.8102 11.1318 81.9915 13.4578 75.339C13.9562 74.0085 14.2885 72.8444 14.787 71.5139C22.5958 48.8955 42.8657 29.7697 57.8188 24.2815C91.8788 11.8081 121.287 26.1109 121.619 26.1109C122.782 26.7761 124.277 26.6098 125.274 25.6119C125.44 25.4456 148.535 6.65245 178.441 6.48614H178.773C208.181 6.48614 231.608 21.4542 240.247 31.5991C258.69 53.7186 263.84 82.823 255.367 116.085ZM122.948 104.776C120.124 103.612 116.967 102.614 114.142 101.949C109.158 100.618 93.0418 101.45 91.3803 101.783C90.3835 101.949 89.3866 102.115 88.5559 102.281C89.5527 93.467 91.5465 80.9936 93.7064 77.3348C96.3647 73.177 100.518 68.1876 105.004 68.8529C109.158 69.5181 113.644 71.1812 118.628 79.6631C121.951 85.1514 122.782 97.4584 122.948 104.776Z" fill="#FFA000"/>
<path d="M234.598 93.7996C232.937 99.7868 229.448 106.107 223.633 112.759C215.99 121.74 198.877 134.712 186.582 145.689C170.632 132.883 159.168 123.902 149.365 112.759C143.55 106.107 140.227 99.7868 138.4 93.7996C136.904 87.646 137.237 81.9915 138.234 76.5032C141.058 64.6951 150.861 54.3838 164.817 54.3838C174.786 54.3838 181.764 62.0341 186.748 68.8529C191.733 62.0341 197.88 54.3838 208.513 54.3838C222.47 54.3838 232.438 64.5288 235.097 76.5032C235.761 81.8251 236.094 87.646 234.598 93.7996Z" fill="#FFA000"/>
<path d="M103.177 168.473C103.011 168.806 97.3616 176.124 89.5528 178.452C87.8913 178.951 85.8975 179.117 83.9038 179.117C76.7595 179.117 68.9506 176.623 67.7876 176.29C66.1262 175.791 65.1293 173.795 65.6277 172.132C66.1262 170.303 68.1199 169.471 69.7814 169.97C73.1043 170.968 82.9069 173.463 87.7251 171.966C93.3741 170.303 97.8601 164.482 97.8601 164.315C99.0231 162.819 101.017 162.486 102.512 163.65C104.007 164.814 104.34 166.976 103.177 168.473Z" fill="#FFA000"/>
<path d="M139.23 157.663C139.23 163.484 136.074 168.141 132.086 168.141C128.099 168.141 124.942 163.484 124.942 157.663C124.942 151.842 128.099 147.186 132.086 147.186C136.074 147.186 139.23 151.842 139.23 157.663Z" fill="#FFA000"/>
</g>
<defs>
<clipPath id="clip0_102_143">
<rect width="266" height="234" fill="white"/>
</clipPath>
</defs>
</svg>
