<svg width="217" height="60" viewBox="0 0 217 60" fill="none" xmlns="http://www.w3.org/2000/svg">
<g clip-path="url(#clip0_18_38)">
<path d="M104.386 38.2785C106.574 38.2785 108.348 36.5103 108.348 34.3291C108.348 32.1479 106.574 30.3797 104.386 30.3797C102.197 30.3797 100.423 32.1479 100.423 34.3291C100.423 36.5103 102.197 38.2785 104.386 38.2785Z" fill="#333333"/>
<path d="M89.4516 31.1392C88.6896 31.1392 87.9277 30.9873 87.1657 30.5316C79.394 25.8228 77.7177 19.443 77.5653 19.1392C77.5653 18.8354 77.4129 18.6835 77.5653 18.3797C77.5653 18.0759 78.3273 11.8481 84.118 6.98734C77.4129 5.62025 68.1173 6.07595 64.3076 6.53165C63.0885 6.68354 62.0218 5.77215 61.8694 4.55696C61.717 3.34177 62.6313 2.27848 63.8504 2.12658C64.0028 2.12658 68.7268 1.67089 74.3652 1.67089C80.7655 1.82278 85.6419 2.43038 89.2992 3.79747C92.9565 2.43038 98.5948 1.21519 105.909 0.607595C112.462 0.151899 118.1 0 118.253 0C118.558 0 124.044 0.151899 130.596 0.759494C137.911 1.51899 143.397 2.58228 147.206 3.94937C150.711 2.58228 155.74 1.82278 162.14 1.82278C167.779 1.67089 172.503 2.12658 172.655 2.27848C173.874 2.43038 174.789 3.49367 174.636 4.70886C174.484 5.92405 173.417 6.83544 172.198 6.68354C168.388 6.37975 159.245 5.92405 152.388 7.13924C158.331 12 158.94 18.2278 158.94 18.5316C158.94 18.8354 158.94 18.9873 158.94 19.2911C158.94 19.5949 157.112 25.9747 149.34 30.6835C147.968 31.5949 146.14 31.5949 144.768 30.6835C136.996 25.9747 135.32 19.5949 135.168 19.2911C135.168 18.9873 135.015 18.8354 135.168 18.5316C135.168 18.2278 135.93 11.8481 141.873 6.98734C134.254 5.16456 122.824 4.55696 118.1 4.40506C113.376 4.40506 101.947 5.01266 94.328 6.98734C100.271 11.8481 101.033 18.2278 101.033 18.5316C101.033 18.8354 101.033 18.9873 101.033 19.2911C101.033 19.5949 99.2044 25.9747 91.4326 30.6835C90.9754 30.9873 90.2135 31.1392 89.4516 31.1392ZM81.9846 18.5316C82.4417 19.7468 84.118 23.6962 89.4516 26.7342C94.6327 23.6962 96.4614 19.5949 96.9185 18.5316C96.7662 17.924 96.4614 16.7089 95.8518 15.1899C94.4803 12.4557 92.4993 10.3291 89.7563 8.81013C89.7563 8.81013 89.7563 8.81013 89.6039 8.81013H89.4516C83.5084 12 82.2893 17.0127 81.9846 18.5316ZM139.739 18.5316C140.197 19.7468 141.873 23.6962 147.206 26.7342C152.388 23.6962 154.216 19.5949 154.673 18.5316C154.521 17.924 154.216 16.7089 153.607 15.1899C152.235 12.4557 150.254 10.3291 147.511 8.81013C147.511 8.81013 147.511 8.81013 147.359 8.81013C147.359 8.81013 147.359 8.81013 147.206 8.81013C141.416 12 140.044 17.0127 139.739 18.5316Z" fill="#333333"/>
<path d="M131.358 60C126.939 60 123.586 58.481 121.301 56.962C120.081 56.0506 119.015 55.1392 118.253 54.2279C117.491 55.1392 116.424 56.0506 115.205 56.962C112.005 59.0886 106.671 61.3671 98.7472 59.0886C93.1089 57.4177 89.1468 54.5317 87.1657 50.4304C84.118 44.3544 86.5562 37.8228 86.5562 37.519C87.0133 36.4557 88.2325 35.8481 89.4516 36.3038C90.5183 36.7595 91.1278 37.9747 90.6707 39.1899C90.6707 39.1899 88.842 44.2025 91.1278 48.6076C92.6517 51.4937 95.5471 53.6203 99.9663 54.8354C111.548 58.1772 115.967 49.9747 116.272 49.519C116.577 48.7595 117.338 48.3038 118.253 48.3038C119.167 48.3038 119.929 48.7595 120.234 49.519C120.386 49.8228 123.586 55.5949 131.358 55.5949C132.882 55.5949 134.711 55.2911 136.539 54.8354C140.959 53.6203 144.006 51.4937 145.378 48.4557C147.511 44.0506 145.835 39.1899 145.683 39.038C145.225 37.9747 145.835 36.6076 146.902 36.1519C147.968 35.6962 149.34 36.3038 149.797 37.3671C149.949 37.6709 152.388 44.2025 149.188 50.2785C147.206 54.3798 143.244 57.2658 137.606 58.9367C135.473 59.6962 133.339 60 131.358 60Z" fill="#333333"/>
<path d="M132.12 38.2785C134.308 38.2785 136.082 36.5103 136.082 34.3291C136.082 32.1479 134.308 30.3797 132.12 30.3797C129.932 30.3797 128.158 32.1479 128.158 34.3291C128.158 36.5103 129.932 38.2785 132.12 38.2785Z" fill="#333333"/>
<path d="M120.081 39.4937C121.301 39.4937 122.367 40.4051 122.367 42.0759C122.367 44.3544 120.539 45.7215 118.253 46.6329C115.967 45.7215 114.138 44.3544 114.138 42.0759C114.138 40.4051 115.205 39.4937 116.424 39.4937C117.186 39.4937 117.796 39.7975 118.253 40.4051C118.71 39.9494 119.167 39.4937 120.081 39.4937Z" fill="#333333"/>
<path d="M0 31.1393H6.70506C14.0197 31.1393 17.5246 35.0886 17.5246 42.9874C17.5246 50.8861 14.0197 54.8355 6.70506 54.8355H1.2191C0.457163 54.8355 0 54.5317 0 53.7722V31.1393ZM6.40028 50.5823C10.3624 50.5823 12.8006 48.9114 12.8006 42.9874C12.8006 37.0633 10.3624 35.2405 6.40028 35.2405H4.41924V50.5823H6.40028Z" fill="white"/>
<path d="M20.4199 31.1393H27.125C34.4396 31.1393 37.9445 35.0886 37.9445 42.9874C37.9445 50.8861 34.4396 54.8355 27.125 54.8355H21.639C20.8771 54.8355 20.4199 54.5317 20.4199 53.7722V31.1393ZM26.8202 50.5823C30.7823 50.5823 33.2205 48.9114 33.2205 42.9874C33.2205 37.0633 30.7823 35.2405 26.8202 35.2405H24.9916V50.5823H26.8202Z" fill="white"/>
<path d="M49.9831 55.1392C43.5829 55.1392 40.2303 50.8861 40.2303 43.1392C40.2303 34.7848 44.3448 30.8354 49.9831 30.8354C55.6215 30.8354 59.736 34.6329 59.736 43.1392C59.736 50.8861 56.3834 55.1392 49.9831 55.1392ZM49.9831 35.2405C46.6306 35.2405 44.802 37.9747 44.802 43.1392C44.802 48.1519 46.4782 50.7342 49.9831 50.7342C53.3357 50.7342 55.0119 48.1519 55.0119 43.1392C55.0119 37.8228 53.3357 35.2405 49.9831 35.2405Z" fill="white"/>
<path d="M78.7844 53.3165C79.2416 53.9241 78.9368 54.8355 78.1749 54.8355H74.0604L66.8982 44.3544V52.1013C66.8982 53.9241 66.441 54.8355 63.8504 54.8355H62.3266V31.1393H65.5267C66.2886 31.1393 66.7458 31.443 66.7458 32.3544V40.557L73.2985 31.2912H77.4129C78.1749 31.2912 78.3273 31.8987 78.0225 32.5063L71.0126 42.5317L78.7844 53.3165Z" fill="white"/>
<path d="M158.331 31.1392H165.036C172.35 31.1392 175.855 35.0886 175.855 42.9873C175.855 50.8861 172.35 54.8354 165.036 54.8354H159.55C158.788 54.8354 158.331 54.5316 158.331 53.7721V31.1392ZM164.731 50.5823C168.693 50.5823 171.131 48.9114 171.131 42.9873C171.131 37.0633 168.693 35.2405 164.731 35.2405H162.902V50.5823H164.731Z" fill="white"/>
<path d="M187.742 55.1392C181.341 55.1392 177.989 50.8861 177.989 43.1392C177.989 34.7848 182.103 30.8354 187.742 30.8354C193.38 30.8354 197.494 34.6329 197.494 43.1392C197.494 50.8861 194.142 55.1392 187.742 55.1392ZM187.742 35.2405C184.389 35.2405 182.56 37.9747 182.56 43.1392C182.56 48.1519 184.237 50.7342 187.742 50.7342C191.094 50.7342 192.77 48.1519 192.77 43.1392C192.923 37.8228 191.246 35.2405 187.742 35.2405Z" fill="white"/>
<path d="M215.781 41.7721C216.543 41.7721 217 42.0759 217 42.8354V52.2532C217 53.0126 216.695 53.6202 215.933 53.924C214.562 54.5316 212.733 54.8354 210.752 54.8354C204.199 54.8354 199.475 51.4937 199.475 43.2911C199.475 35.0886 204.352 30.6835 210.6 30.6835C213.038 30.6835 215.324 31.443 216.39 32.3544C216.848 32.6582 216.848 33.1139 216.695 33.4177L215.171 36.1519C213.8 35.2405 212.428 34.7848 210.6 34.7848C206.638 34.7848 204.199 37.6709 204.199 43.1392C204.199 47.3924 206.18 50.1266 209.381 50.7342C210.447 50.8861 211.971 50.8861 212.886 50.5823V45.5696H210.143C209.381 45.5696 208.923 45.2658 208.923 44.3544V41.6202H215.781V41.7721Z" fill="white"/>
</g>
<defs>
<clipPath id="clip0_18_38">
<rect width="217" height="60" fill="white"/>
</clipPath>
</defs>
</svg>
