<svg width="436" height="138" viewBox="0 0 436 138" fill="none" xmlns="http://www.w3.org/2000/svg">
<g filter="url(#filter0_d_99_137)">
<rect x="10" y="4" width="408" height="118" rx="12" fill="#FF8A00"/>
<path d="M52.854 31.348H55.248V35.866H57.372V37.828H55.248V42.742H52.854V31.348ZM45.204 42.004H47.616V45.352H55.716V47.26H45.204V42.004ZM43.116 32.392H45.492V34.66H48.246V32.392H50.622V40.474H43.116V32.392ZM45.492 36.496V38.584H48.246V36.496H45.492ZM69.2554 31.312H71.6494V47.026H69.2554V40.69H66.6634V38.782H69.2554V36.334H66.6994V34.408H69.2554V31.312ZM58.7794 32.644H66.2494V38.854H61.1914V41.338H67.1494V43.3H58.8154V36.946H63.8734V34.552H58.7794V32.644ZM73.9748 39.07C77.1608 38.476 79.5908 37.216 79.6088 34.336H74.3708V32.374H81.8588V34.318V34.336V34.372H84.8468V31.33H87.2768V42.778H84.8468V39.988H81.2828V38.062H84.8468V36.28H81.5528C80.5988 39.178 77.5028 40.69 74.3708 41.284L73.9748 39.07ZM76.9088 42.094H79.3388V45.352H87.4388V47.26H76.9088V42.094ZM98.0801 32.644V40.15H95.6681V34.588H89.6741V32.644H98.0801ZM99.6641 46.99V31.33H102.058V37.828H104.2V39.79H102.058V46.99H99.6641ZM98.8901 42.004V43.948H89.2421V42.004H91.8881V37.558H94.2461V42.004H98.8901ZM116.048 31.312H118.442V47.026H116.048V31.312ZM115.148 42.094V44.038H105.23V42.094H115.148ZM105.59 36.406C105.59 33.958 107.39 32.212 109.928 32.212C112.502 32.212 114.302 33.958 114.302 36.406C114.302 38.854 112.502 40.582 109.928 40.582C107.39 40.582 105.59 38.854 105.59 36.406ZM107.894 36.406C107.894 37.738 108.704 38.62 109.928 38.62C111.188 38.62 112.016 37.738 112.016 36.406C112.016 35.056 111.188 34.174 109.928 34.174C108.704 34.174 107.894 35.056 107.894 36.406ZM124.681 42.958V41.014H139.333V42.958H133.177V47.566H130.783V42.958H124.681ZM126.913 40.15L125.725 38.278L129.865 35.65C130.315 35.362 130.549 35.182 130.675 35.002H126.247V33.058H130.819V31.456H133.213V33.058H137.785V35.002H133.357C133.483 35.182 133.699 35.362 134.149 35.65L138.307 38.278L137.119 40.15L132.961 37.522C132.583 37.288 132.259 37.036 132.007 36.802C131.755 37.036 131.449 37.288 131.053 37.522L126.913 40.15ZM143.315 41.554H153.845V47.548H151.433V43.426H143.315V41.554ZM151.433 31.348H153.845V40.816H151.433V37.108H149.021C148.589 38.98 146.969 40.222 144.809 40.222C142.235 40.222 140.453 38.512 140.453 36.082C140.453 33.634 142.235 31.924 144.809 31.924C147.023 31.924 148.661 33.22 149.039 35.182H151.433V31.348ZM144.809 38.278C146.015 38.278 146.789 37.396 146.789 36.082C146.789 34.75 146.015 33.868 144.809 33.868C143.585 33.868 142.775 34.75 142.775 36.082C142.775 37.396 143.585 38.278 144.809 38.278ZM163.19 37.702C160.454 37.702 158.546 36.388 158.546 34.516C158.546 32.59 160.454 31.24 163.19 31.24C165.944 31.24 167.87 32.59 167.87 34.516C167.87 36.388 165.944 37.702 163.19 37.702ZM157.952 47.404V43.444H166.016V42.688H157.934V41.032H168.374V44.974H160.328V45.748H168.806V47.404H157.952ZM155.882 40.366V38.476H170.534V40.366H155.882ZM163.208 35.776C164.63 35.776 165.548 35.29 165.548 34.516C165.548 33.706 164.63 33.166 163.208 33.166C161.786 33.166 160.868 33.706 160.868 34.516C160.868 35.29 161.786 35.776 163.208 35.776ZM186.746 31.33H189.14V46.99H186.746V31.33ZM184.352 32.716V34.678C184.28 39.934 180.428 42.238 176.756 43.12L176.252 40.924C179.402 40.168 182.012 38.638 182.084 34.678H176.702V32.716H184.352ZM191.267 39.844H197.387V38.782H193.499V34.282H201.509V33.454H193.463V31.636H203.867V35.974H195.839V36.982H204.173V38.782H199.799V39.844H205.919V41.752H191.267V39.844ZM193.283 42.67H204.011V47.494H201.635V44.578H193.283V42.67ZM218.505 31.33H220.791V46.99H218.505V39.952H217.353V46.306H215.103V31.636H217.353V38.026H218.505V31.33ZM206.841 33.4H209.379V31.672H211.791V33.4H214.329V35.29H206.841V33.4ZM210.585 43.444C208.443 43.444 206.931 41.86 206.931 39.61C206.931 37.36 208.443 35.776 210.585 35.776C212.727 35.776 214.239 37.36 214.239 39.61C214.239 41.86 212.727 43.444 210.585 43.444ZM210.585 41.482C211.449 41.482 212.025 40.744 212.025 39.61C212.025 38.476 211.449 37.738 210.585 37.738C209.721 37.738 209.145 38.476 209.145 39.61C209.145 40.744 209.721 41.482 210.585 41.482ZM222.486 43.174H228.588V40.672H224.43V32.284H226.806V34.696H232.782V32.284H235.158V40.672H231V43.174H237.138V45.118H222.486V43.174ZM226.806 36.568V38.782H232.782V36.568H226.806ZM244.449 36.208H246.429V31.582H248.643V46.27H246.429V38.152H244.449V36.208ZM249.723 31.33H252.009V46.99H249.723V31.33ZM239.805 43.264L237.861 42.184L240.129 38.116C240.669 37.198 240.777 36.694 240.777 35.938V32.356H243.099V35.938C243.099 36.694 243.207 37.198 243.747 38.116L246.033 42.184L244.089 43.264L241.947 39.466L239.805 43.264ZM253.705 43.354H257.305V39.952C256.441 39.106 255.937 37.954 255.937 36.586C255.937 33.814 258.025 31.834 260.995 31.834C264.001 31.834 266.089 33.814 266.089 36.586C266.089 37.918 265.603 39.07 264.757 39.916V43.354H268.357V45.298H253.705V43.354ZM258.313 36.586C258.313 38.17 259.375 39.358 260.995 39.358C262.651 39.358 263.713 38.17 263.713 36.586C263.713 34.984 262.651 33.796 260.995 33.796C259.375 33.796 258.313 34.984 258.313 36.586ZM259.699 43.354H262.345V41.176C261.913 41.266 261.463 41.32 260.995 41.32C260.545 41.32 260.113 41.266 259.699 41.194V43.354ZM273.598 31.996L273.256 42.22H271.006L270.592 31.996H273.598ZM272.14 44.002C272.878 44.002 273.4 44.524 273.4 45.28C273.4 46.018 272.878 46.558 272.14 46.558C271.384 46.558 270.862 46.018 270.862 45.28C270.862 44.524 271.384 44.002 272.14 44.002Z" fill="white"/>
<path d="M50.442 61.604H52.304V65.118H53.956V66.644H52.304V70.466H50.442V61.604ZM44.492 69.892H46.368V72.496H52.668V73.98H44.492V69.892ZM42.868 62.416H44.716V64.18H46.858V62.416H48.706V68.702H42.868V62.416ZM44.716 65.608V67.232H46.858V65.608H44.716ZM63.1986 61.576H65.0606V73.798H63.1986V68.87H61.1826V67.386H63.1986V65.482H61.2106V63.984H63.1986V61.576ZM55.0506 62.612H60.8606V67.442H56.9266V69.374H61.5606V70.9H55.0786V65.958H59.0126V64.096H55.0506V62.612ZM66.8693 67.61C69.3473 67.148 71.2373 66.168 71.2513 63.928H67.1773V62.402H73.0013V63.914V63.928V63.956H75.3253V61.59H77.2153V70.494H75.3253V68.324H72.5533V66.826H75.3253V65.44H72.7633C72.0213 67.694 69.6133 68.87 67.1773 69.332L66.8693 67.61ZM69.1513 69.962H71.0413V72.496H77.3413V73.98H69.1513V69.962ZM85.6179 62.612V68.45H83.7419V64.124H79.0799V62.612H85.6179ZM86.8499 73.77V61.59H88.7119V66.644H90.3779V68.17H88.7119V73.77H86.8499ZM86.2479 69.892V71.404H78.7439V69.892H80.8019V66.434H82.6359V69.892H86.2479ZM102.875 61.576H104.737V73.798H102.875V67.512H100.719V66H102.875V61.576ZM95.3011 70.886L93.9851 69.766L96.3371 67.036C96.8411 66.462 96.9391 66.126 96.9391 65.706V65.02H94.4331V63.508H96.9391V61.73H98.7311V63.508H101.195V65.02H98.7031V65.706C98.7031 66.126 98.8011 66.462 99.2911 67.036L101.643 69.766L100.327 70.886L97.9751 68.156L97.8211 67.96L97.6531 68.156L95.3011 70.886ZM107.862 69.71H116.08V74.064H107.862V69.71ZM114.246 71.18H109.696V72.594H114.246V71.18ZM106.294 67.442H117.69V68.912H106.294V67.442ZM108.506 64.236C108.506 62.57 109.934 61.45 111.978 61.45C114.036 61.45 115.492 62.57 115.492 64.236C115.492 65.818 114.036 66.966 111.978 66.966C109.934 66.966 108.506 65.818 108.506 64.236ZM110.284 64.236C110.284 64.964 110.956 65.468 111.992 65.468C113.028 65.468 113.714 64.964 113.714 64.236C113.714 63.438 113.028 62.948 111.992 62.948C110.956 62.948 110.284 63.438 110.284 64.236ZM122.025 68.576V62.43H128.045V68.576H122.025ZM123.579 69.766H125.469V72.51H131.951V74.008H123.579V69.766ZM123.859 67.092H126.211V63.914H123.859V67.092ZM129.739 70.368V61.59H131.601V65.202H133.253V66.742H131.601V70.368H129.739ZM141.88 61.604H143.742V65.104H145.394V66.672H143.742V70.284H141.88V61.604ZM135.944 69.766H137.82V72.496H144.064V73.98H135.944V69.766ZM140.648 66.938V68.464H134.264V62.43H136.126V66.938H140.648ZM157.247 61.59H159.109V63.914H160.761V65.426H159.109V67.792H157.247V61.59ZM151.101 68.31H159.109V71.838H152.991V72.594H159.431V74.064H151.129V70.452H157.247V69.752H151.101V68.31ZM156.057 65.972V67.512H149.631V62.178H151.493V65.972H156.057ZM161.323 68.842H172.719V70.312H167.917V74.204H166.055V70.312H161.323V68.842ZM162.933 62.08H164.781V63.438H169.233V62.08H171.067V67.624H162.933V62.08ZM164.781 64.894V66.14H169.233V64.894H164.781ZM182.186 61.576H184.048V73.798H182.186V67.372H180.212V65.874H182.186V61.576ZM180.338 69.178V70.718H174.024V62.64H180.03V64.166H175.886V65.874H179.708V67.414H175.886V69.178H180.338ZM43.974 90.774H50.246V90.116H43.96V88.758H52.08V92.062H45.822V92.734H52.416V94.12H43.974V90.774ZM42.364 88.156V86.686H53.76V88.156H42.364ZM44.226 86.294L43.582 84.782L46.62 83.508C46.844 83.41 46.984 83.298 47.068 83.186H43.89V81.674H52.234V83.186H49.056C49.14 83.298 49.28 83.41 49.504 83.508L52.542 84.782L51.898 86.294L48.86 85.02C48.538 84.88 48.272 84.712 48.062 84.516C47.852 84.712 47.586 84.88 47.264 85.02L44.226 86.294ZM63.1846 93.784V87.036H60.4966C59.4606 89.22 57.2906 90.256 55.1906 90.76L54.7986 89.052C57.2626 88.464 59.2926 87.4 59.3486 84.194H55.1486V82.668H61.0986V84.194C61.0846 84.67 61.0426 85.118 60.9726 85.538H63.1846V81.604H65.0466V93.784H63.1846ZM66.6593 87.666H78.0553V89.136H73.3933V91.264H71.5033V89.136H66.6593V87.666ZM68.2553 90.158H70.1313V92.482H76.5013V93.98H68.2553V90.158ZM68.8573 84.334C68.8573 82.64 70.2853 81.492 72.3293 81.492C74.3873 81.492 75.8433 82.64 75.8433 84.334C75.8433 85.958 74.3873 87.134 72.3293 87.134C70.2853 87.134 68.8573 85.958 68.8573 84.334ZM70.6353 84.334C70.6353 85.104 71.3073 85.65 72.3433 85.65C73.3793 85.65 74.0653 85.104 74.0653 84.334C74.0653 83.494 73.3793 82.99 72.3433 82.99C71.3073 82.99 70.6353 83.494 70.6353 84.334ZM82.0264 90.634V89.122H93.4224V90.634H88.6344V94.218H86.7724V90.634H82.0264ZM83.7624 88.45L82.8384 86.994L86.0584 84.95C86.4084 84.726 86.5904 84.586 86.6884 84.446H83.2444V82.934H86.8004V81.688H88.6624V82.934H92.2184V84.446H88.7744C88.8724 84.586 89.0404 84.726 89.3904 84.95L92.6244 86.994L91.7004 88.45L88.4664 86.406C88.1724 86.224 87.9204 86.028 87.7244 85.846C87.5284 86.028 87.2904 86.224 86.9824 86.406L83.7624 88.45ZM96.5191 89.542H104.709V94.204H102.833V90.998H96.5191V89.542ZM102.833 81.604H104.709V88.968H102.833V86.084H100.957C100.621 87.54 99.3611 88.506 97.6811 88.506C95.6791 88.506 94.2931 87.176 94.2931 85.286C94.2931 83.382 95.6791 82.052 97.6811 82.052C99.4031 82.052 100.677 83.06 100.971 84.586H102.833V81.604ZM97.6811 86.994C98.6191 86.994 99.2211 86.308 99.2211 85.286C99.2211 84.25 98.6191 83.564 97.6811 83.564C96.7291 83.564 96.0991 84.25 96.0991 85.286C96.0991 86.308 96.7291 86.994 97.6811 86.994ZM111.978 86.546C109.85 86.546 108.366 85.524 108.366 84.068C108.366 82.57 109.85 81.52 111.978 81.52C114.12 81.52 115.618 82.57 115.618 84.068C115.618 85.524 114.12 86.546 111.978 86.546ZM107.904 94.092V91.012H114.176V90.424H107.89V89.136H116.01V92.202H109.752V92.804H116.346V94.092H107.904ZM106.294 88.618V87.148H117.69V88.618H106.294ZM111.992 85.048C113.098 85.048 113.812 84.67 113.812 84.068C113.812 83.438 113.098 83.018 111.992 83.018C110.886 83.018 110.172 83.438 110.172 84.068C110.172 84.67 110.886 85.048 111.992 85.048ZM130.299 81.59H132.161V93.77H130.299V81.59ZM128.437 82.668V84.194C128.381 88.282 125.385 90.074 122.529 90.76L122.137 89.052C124.587 88.464 126.617 87.274 126.673 84.194H122.487V82.668H128.437ZM133.816 88.212H138.576V87.386H135.552V83.886H141.782V83.242H135.524V81.828H143.616V85.202H137.372V85.986H143.854V87.386H140.452V88.212H145.212V89.696H133.816V88.212ZM135.384 90.41H143.728V94.162H141.88V91.894H135.384V90.41ZM153.978 81.604H155.854V86.49H157.646V88.03H155.854V93.784H153.978V81.604ZM146.068 83.158H148.714V81.856H150.59V83.158H153.236V84.628H146.068V83.158ZM149.652 91.082C147.804 91.082 146.502 89.836 146.502 88.058C146.502 86.28 147.804 85.02 149.652 85.02C151.5 85.02 152.802 86.28 152.802 88.058C152.802 89.836 151.5 91.082 149.652 91.082ZM149.652 89.556C150.464 89.556 150.996 88.954 150.996 88.058C150.996 87.148 150.464 86.546 149.652 86.546C148.84 86.546 148.308 87.148 148.308 88.058C148.308 88.954 148.84 89.556 149.652 89.556ZM159.847 82.038H161.709V85.048H167.981V86.518H159.847V82.038ZM158.097 87.68H169.493V89.15H158.097V87.68ZM159.861 90.102H161.723V92.454H167.925V93.938H159.861V90.102ZM170.475 87.582C172.841 87.12 174.619 86.252 174.619 83.942V83.928H170.783V82.402H176.369V83.942C176.369 87.246 173.625 88.73 170.811 89.29L170.475 87.582ZM172.687 89.878H174.577V92.496H180.919V93.98H172.687V89.878ZM176.789 86.658V85.146H178.903V81.59H180.793V90.424H178.903V86.658H176.789ZM189.105 89.976C187.033 89.976 185.563 88.464 185.563 86.322C185.563 84.152 187.033 82.626 189.105 82.626C190.939 82.626 192.283 83.83 192.563 85.622H194.313V81.576H196.175V93.798H194.313V87.106H192.549C192.241 88.828 190.897 89.976 189.105 89.976ZM189.105 88.422C190.127 88.422 190.785 87.582 190.785 86.322C190.785 85.034 190.127 84.194 189.105 84.194C188.069 84.194 187.411 85.034 187.411 86.322C187.411 87.582 188.069 88.422 189.105 88.422ZM200.111 89.864H201.973V92.496H208.651V93.98H200.111V89.864ZM206.551 81.604H208.413V90.284H206.551V86.336H204.941V84.866H206.551V81.604ZM201.455 87.302V88.828H198.053V82.486H201.371V83.998H199.915V87.302H201.455ZM205.193 82.486V83.998H203.723V87.302H205.515V88.828H201.861V82.486H205.193ZM217.894 81.576H219.756V86.35H221.492V87.89H219.756V93.756H217.894V81.576ZM210.418 84.194V82.668H216.368V84.166V84.194C216.354 87.89 213.414 90.074 210.46 90.788L210.068 89.094C212.49 88.506 214.59 87.022 214.604 84.194H210.418ZM222.026 90.942H224.826V88.296C224.154 87.638 223.762 86.742 223.762 85.678C223.762 83.522 225.386 81.982 227.696 81.982C230.034 81.982 231.658 83.522 231.658 85.678C231.658 86.714 231.28 87.61 230.622 88.268V90.942H233.422V92.454H222.026V90.942ZM225.61 85.678C225.61 86.91 226.436 87.834 227.696 87.834C228.984 87.834 229.81 86.91 229.81 85.678C229.81 84.432 228.984 83.508 227.696 83.508C226.436 83.508 225.61 84.432 225.61 85.678ZM226.688 90.942H228.746V89.248C228.41 89.318 228.06 89.36 227.696 89.36C227.346 89.36 227.01 89.318 226.688 89.262V90.942ZM237.499 93.434C236.925 93.434 236.505 93.014 236.505 92.44C236.505 91.852 236.925 91.446 237.499 91.446C238.087 91.446 238.493 91.852 238.493 92.44C238.493 93.014 238.087 93.434 237.499 93.434ZM236.561 90.088C236.547 88.59 236.995 87.666 238.073 86.868C239.067 86.126 239.277 85.734 239.305 85.174C239.361 84.292 238.689 83.676 237.709 83.676C236.981 83.676 236.281 84.208 235.987 84.964L234.279 84.334C234.825 82.878 236.253 81.856 237.709 81.856C239.809 81.856 241.223 83.256 241.125 85.258C241.069 86.294 240.551 87.288 239.165 88.338C238.493 88.828 238.367 89.066 238.381 90.074L236.561 90.088Z" fill="white"/>
<path d="M425.328 37.4948C426.224 36.6992 426.224 35.3008 425.328 34.5052L418 28L418 44L425.328 37.4948Z" fill="#FF8A00"/>
</g>
<defs>
<filter id="filter0_d_99_137" x="0" y="0" width="436" height="138" filterUnits="userSpaceOnUse" color-interpolation-filters="sRGB">
<feFlood flood-opacity="0" result="BackgroundImageFix"/>
<feColorMatrix in="SourceAlpha" type="matrix" values="0 0 0 0 0 0 0 0 0 0 0 0 0 0 0 0 0 0 127 0" result="hardAlpha"/>
<feOffset dy="6"/>
<feGaussianBlur stdDeviation="5"/>
<feColorMatrix type="matrix" values="0 0 0 0 0.6875 0 0 0 0 0.373116 0 0 0 0 0 0 0 0 0.3 0"/>
<feBlend mode="normal" in2="BackgroundImageFix" result="effect1_dropShadow_99_137"/>
<feBlend mode="normal" in="SourceGraphic" in2="effect1_dropShadow_99_137" result="shape"/>
</filter>
</defs>
</svg>
