<svg width="57" height="61" viewBox="0 0 57 61" fill="none" xmlns="http://www.w3.org/2000/svg">
<g clip-path="url(#clip0_102_350)">
<path d="M47.2217 38.2165L39.5308 24.9789C37.2346 21.0141 33.1035 18.644 28.5 18.644C23.8965 18.644 19.7764 21.0141 17.4692 24.9789L9.77834 38.2165C7.74576 41.7115 7.74576 45.8729 9.77834 49.3679C11.8109 52.8521 15.4366 54.9382 19.4907 54.9382H23.0505L25.6104 59.3508C26.2147 60.3884 27.2914 61 28.489 61C29.6866 61 30.7633 60.3774 31.3676 59.3508L33.9275 54.9382H37.4873C41.5414 54.9382 45.1671 52.8521 47.1997 49.3679C49.2433 45.8729 49.2433 41.7006 47.2217 38.2165ZM29.1043 49.499C28.9175 49.5864 28.7197 49.6301 28.522 49.6301C28.3242 49.6301 28.1155 49.5864 27.9287 49.499C25.5775 48.374 17.8867 44.1253 17.8867 36.6437C17.8867 32.81 20.5015 30.0249 24.0943 30.0249C25.8851 30.0249 27.4123 30.6038 28.511 31.6523C29.6097 30.6038 31.1369 30.0249 32.9277 30.0249C36.5204 30.0249 39.1353 32.81 39.1353 36.6437C39.1353 39.6036 37.9377 42.3887 35.5646 44.9117C33.2573 47.3474 30.5216 48.8328 29.1043 49.499Z" fill="#FFA000"/>
<path d="M27.3574 10.791C26.7532 13.0738 25.5336 15.0616 23.9075 16.3941C22.5891 17.4754 21.1169 18.0433 19.6666 18.0433C19.1942 18.0433 18.7217 17.9778 18.2493 17.8576C16.3596 17.3661 14.8653 15.9354 14.0413 13.8165C13.2832 11.8614 13.1953 9.52407 13.7996 7.25227C14.4039 4.96955 15.6234 2.98172 17.2495 1.64923C19.0074 0.207508 21.007 -0.316754 22.9077 0.185664C24.8085 0.688081 26.2917 2.11888 27.1157 4.22685C27.8738 6.17098 27.9617 8.50831 27.3574 10.791Z" fill="#FFA000"/>
<path d="M13.9424 23.2313C13.3381 25.514 12.1186 27.5018 10.4925 28.8343C9.17408 29.9156 7.70184 30.4835 6.25157 30.4835C5.77913 30.4835 5.30669 30.4289 4.83426 30.2979C2.94451 29.8064 1.45029 28.3756 0.626278 26.2676C-0.131818 24.3126 -0.219713 21.9752 0.384566 19.7034C0.999832 17.4098 2.23036 15.422 3.84544 14.0895C5.60334 12.6477 7.60296 12.1344 9.50369 12.6259C11.3934 13.1174 12.8877 14.5482 13.7117 16.6671C14.4588 18.6112 14.5467 20.9485 13.9424 23.2313Z" fill="#FFA000"/>
<path d="M42.9478 13.8274C42.1348 15.9354 40.6406 17.3662 38.7399 17.8686C38.2784 17.9887 37.806 18.0543 37.3226 18.0543C35.8723 18.0543 34.4 17.4863 33.0816 16.405C31.4556 15.0725 30.236 13.0847 29.6317 10.802C29.368 9.79714 29.2362 8.78138 29.2362 7.78747C29.2362 6.53143 29.445 5.31907 29.8734 4.22686C30.6865 2.11889 32.1807 0.688097 34.0814 0.18568C35.9712 -0.305815 37.9818 0.218447 39.7397 1.64924C41.3657 2.98174 42.5853 4.96957 43.1896 7.25229C43.7938 9.53501 43.7059 11.8723 42.9478 13.8274Z" fill="#FFA000"/>
<path d="M56.3629 26.2676C55.5499 28.3756 54.0556 29.8064 52.1659 30.2979C51.6935 30.418 51.232 30.4836 50.7486 30.4836C49.2983 30.4836 47.8261 29.9156 46.5076 28.8343C44.8816 27.5018 43.662 25.514 43.0578 23.2313C42.7941 22.2265 42.6622 21.2107 42.6622 20.2168C42.6622 18.9608 42.871 17.7484 43.2995 16.6562C44.1125 14.5482 45.6067 13.1174 47.5075 12.615C49.3972 12.1235 51.4078 12.6478 53.1657 14.0786C54.7918 15.4111 56.0113 17.3989 56.6156 19.6816C57.2089 21.9753 57.121 24.3126 56.3629 26.2676Z" fill="#FFA000"/>
</g>
<defs>
<clipPath id="clip0_102_350">
<rect width="57" height="61" fill="white"/>
</clipPath>
</defs>
</svg>
