<svg width="301" height="536" viewBox="0 0 301 536" fill="none" xmlns="http://www.w3.org/2000/svg">
<g clip-path="url(#clip0_7638_302)">
<rect width="301" height="535.379" rx="32.1067" fill="white"/>
<path d="M0 29C0 12.9837 12.9837 0 29 0H272C288.016 0 301 12.9837 301 29V506.38C301 522.396 288.016 535.38 272 535.38H29C12.9838 535.38 0 522.396 0 506.38V29Z" fill="white"/>
<path fill-rule="evenodd" clip-rule="evenodd" d="M193.622 155.717H107.89C89.9325 155.717 75.4507 170.208 75.4507 188.177V273.965C75.4507 291.934 89.9325 306.425 107.89 306.425H193.622C211.579 306.425 226.061 291.934 226.061 273.965V188.177C225.772 170.208 211.29 155.717 193.622 155.717Z" fill="#FFA000"/>
<path d="M131.161 246.141C134.362 246.141 136.957 243.544 136.957 240.341C136.957 237.139 134.362 234.542 131.161 234.542C127.961 234.542 125.366 237.139 125.366 240.341C125.366 243.544 127.961 246.141 131.161 246.141Z" fill="white"/>
<path d="M168.971 276.794C162.623 276.794 157.932 274.585 154.896 272.376C153.24 270.995 151.584 269.89 150.48 268.51C149.376 269.614 147.996 270.995 146.064 272.376C141.925 275.414 134.473 278.451 123.158 275.414C115.154 273.204 109.635 269.062 106.875 263.263C102.459 254.702 106.047 245.312 106.047 245.036C106.599 243.379 108.531 242.551 110.187 243.379C111.843 243.931 112.671 245.865 111.843 247.522C111.843 247.522 109.359 254.702 112.395 260.777C114.602 264.92 118.742 267.957 124.814 269.614C141.097 274.309 147.444 262.71 147.72 262.158C148.272 261.053 149.376 260.501 150.48 260.501C151.584 260.501 152.688 261.053 153.24 262.158C153.516 262.71 157.932 270.719 168.695 270.719C170.903 270.719 173.386 270.443 176.146 269.614C182.494 267.957 186.634 264.92 188.565 260.777C191.601 254.702 189.117 247.522 189.117 247.522C188.565 245.865 189.393 244.208 190.773 243.379C192.429 242.827 194.085 243.655 194.913 245.036C195.189 245.312 198.501 254.702 194.085 263.263C191.325 269.062 185.806 273.204 177.802 275.414C174.766 276.242 171.731 276.794 168.971 276.794Z" fill="white"/>
<path d="M170.075 246.141C173.276 246.141 175.87 243.544 175.87 240.341C175.87 237.139 173.276 234.542 170.075 234.542C166.874 234.542 164.279 237.139 164.279 240.341C164.279 243.544 166.874 246.141 170.075 246.141Z" fill="white"/>
<path d="M152.964 247.798C154.62 247.798 156.276 249.179 156.276 251.388C156.276 254.702 153.792 256.635 150.48 257.739C147.168 256.635 144.684 254.426 144.684 251.388C144.684 248.902 146.34 247.798 147.996 247.798C149.1 247.798 149.928 248.35 150.48 249.179C151.032 248.35 151.86 247.798 152.964 247.798Z" fill="white"/>
<path d="M222.235 200.851V194.775C219.475 194.499 216.164 194.499 212.3 194.499C203.468 194.775 196.293 195.604 191.325 197.537C186.082 195.604 178.354 193.947 168.143 193.118C159.035 192.29 151.032 192.014 150.756 192.014C150.48 192.014 142.753 192.014 133.369 193.118C123.158 194.223 115.154 195.604 110.187 197.537C105.219 195.604 98.0435 194.775 89.2121 194.499C85.3484 194.499 81.7606 194.499 79.2768 194.775V200.851C85.6244 200.575 95.2837 200.298 102.735 201.955C94.4558 208.859 93.6278 217.696 93.3518 218.249C93.3518 218.525 93.3518 219.077 93.3518 219.353C93.3518 219.63 95.8357 228.743 106.875 235.371C107.979 235.923 109.083 236.199 110.187 236.199C111.291 236.199 112.395 235.923 113.498 235.371C124.538 228.743 126.746 219.63 127.022 219.353C127.022 219.077 127.022 218.525 127.022 218.249C127.022 217.696 125.918 208.859 117.638 201.955C128.401 199.194 144.408 198.365 151.032 198.365C157.655 198.365 173.662 199.194 184.426 201.955C175.87 208.859 175.042 217.973 175.042 218.249C175.042 218.525 175.042 219.077 175.042 219.353C175.042 219.63 177.526 228.743 188.565 235.371C190.497 236.475 192.981 236.475 194.913 235.371C205.952 228.743 208.16 219.63 208.436 219.353C208.436 219.077 208.436 218.525 208.436 218.249C208.436 217.696 207.332 208.859 199.053 201.955C206.228 200.575 215.888 200.575 222.235 200.851ZM118.742 213.554C119.846 215.487 120.122 217.42 120.398 218.249C119.846 219.906 117.362 225.429 109.911 229.847C102.459 225.429 99.9754 219.906 99.4234 218.249C99.6994 216.316 101.631 209.136 109.635 204.441C109.635 204.441 109.635 204.441 109.911 204.441C109.911 204.441 109.911 204.441 110.187 204.441C114.05 206.65 117.086 209.688 118.742 213.554ZM200.157 213.554C201.261 215.487 201.537 217.42 201.813 218.249C201.261 219.906 198.777 225.429 191.325 229.847C183.874 225.429 181.39 219.906 180.838 218.249C181.114 216.316 183.046 209.136 191.049 204.441C191.049 204.441 191.049 204.441 191.325 204.441C191.325 204.441 191.325 204.441 191.601 204.441C195.465 206.65 198.225 209.688 200.157 213.554Z" fill="white"/>
<path d="M149.219 347.367C150.962 347.367 151.709 348.114 151.709 349.859V355.34H100.415C98.6723 355.34 97.9254 354.593 97.9254 352.848V347.367H119.837V343.131C118.592 343.131 117.347 343.131 116.102 342.882C110.375 342.384 106.64 340.141 105.893 335.906C105.146 332.417 105.395 325.192 106.64 319.461H140.504C142.247 319.461 142.994 320.209 142.994 321.704V326.936H130.793C130.544 328.929 130.544 331.421 130.544 332.417C130.793 334.411 131.789 335.158 134.03 335.407C136.52 335.657 139.01 335.657 141.749 335.407C143.492 335.158 144.737 335.906 144.737 337.65V341.885C140.504 343.131 136.022 343.38 131.042 342.633C130.793 342.633 130.295 342.633 130.046 342.384V347.367H149.219ZM143.99 366.054C143.99 369.791 144.239 374.027 143.741 375.771C143.492 377.017 142.745 378.013 141.5 378.761C138.512 380.256 134.777 377.764 134.777 374.276V367.3H108.134C106.391 367.3 105.644 366.552 105.644 364.808V359.327H141.251C142.994 359.327 143.741 360.074 143.741 361.818V366.054H143.99ZM122.825 335.657C122.825 335.407 122.825 334.909 122.576 334.66C122.327 332.667 122.327 330.175 122.825 327.185H113.612C113.363 329.178 113.363 331.67 113.612 332.667C113.861 334.411 115.355 335.657 118.094 335.906C119.837 335.906 121.331 335.906 122.825 335.657Z" fill="#FFA000"/>
<path d="M197.773 347.367C199.516 347.367 200.263 348.114 200.263 349.859V355.34H148.97C147.227 355.34 146.48 354.593 146.48 352.848V347.367H168.143V342.882C167.894 342.882 167.645 342.882 167.147 342.882C159.179 342.135 155.444 339.394 154.697 334.909C153.95 331.172 154.448 325.192 155.195 320.209H188.311C190.054 320.209 190.801 320.956 190.801 322.451V328.182H163.661C163.661 329.178 163.412 330.923 163.661 331.919C163.91 333.663 165.155 334.66 168.89 335.158C174.368 335.657 183.331 335.407 189.058 334.909C191.05 334.66 192.544 335.657 192.544 337.65V342.135C187.813 342.882 183.082 343.131 178.85 343.131V347.367H197.773ZM192.544 366.054C192.544 369.791 192.793 374.027 192.295 375.771C192.046 377.017 191.299 378.013 190.054 378.761C187.066 380.256 183.331 377.764 183.331 374.276V367.3H156.689C154.946 367.3 154.199 366.552 154.199 364.808V359.327H189.805C191.548 359.327 192.295 360.074 192.295 361.818V366.054H192.544Z" fill="#FFA000"/>
<path fill-rule="evenodd" clip-rule="evenodd" d="M40 0H0V627V667H40C17.9086 667 0 649.091 0 627L9.4003e-06 40C9.73151e-06 17.9086 17.9086 0 40 0ZM335 0C357.091 0 375 17.9086 375 40V0H335ZM375 627C375 649.091 357.091 667 335 667H375V627Z" fill="white"/>
<path opacity="0.35" fill-rule="evenodd" clip-rule="evenodd" d="M285.214 13.9129C286.396 13.9129 287.355 14.8712 287.355 16.0534V20.8694C287.355 22.0515 286.396 23.0098 285.214 23.0098H271.836C270.654 23.0098 269.696 22.0515 269.696 20.8694V16.0534C269.696 14.8712 270.654 13.9129 271.836 13.9129H285.214ZM285.214 14.7156H271.836C271.136 14.7156 270.562 15.2532 270.504 15.938L270.499 16.0534V20.8694C270.499 21.5693 271.036 22.1437 271.721 22.2023L271.836 22.2072H285.214C285.914 22.2072 286.489 21.6696 286.547 20.9848L286.552 20.8694V16.0534C286.552 15.3534 286.014 14.7791 285.33 14.7205L285.214 14.7156ZM289.223 18.4614C289.223 19.1622 288.803 19.7948 288.157 20.0667V16.8561C288.803 17.128 289.223 17.7606 289.223 18.4614Z" fill="#FFA000"/>
<path fill-rule="evenodd" clip-rule="evenodd" d="M41.9661 17.6477C40.6771 16.4222 38.9664 15.7388 37.1878 15.7387C35.409 15.7387 33.6982 16.4221 32.409 17.6477C32.312 17.7425 32.1567 17.7413 32.0612 17.645L31.133 16.7086C31.0847 16.6598 31.0577 16.5938 31.0582 16.5251C31.0586 16.4564 31.0864 16.3907 31.1355 16.3426C34.5188 13.1002 39.8563 13.1002 43.2397 16.3426C43.2886 16.3907 43.3164 16.4564 43.3168 16.5251C43.3172 16.5938 43.2902 16.6599 43.2418 16.7086L42.3139 17.645C42.2183 17.7411 42.0632 17.7423 41.9661 17.6477ZM39.8318 19.8045C39.1074 19.1485 38.1651 18.7853 37.1878 18.7854C36.2112 18.7858 35.2696 19.149 34.5457 19.8045C34.4477 19.8976 34.2934 19.8956 34.1979 19.7999L33.2713 18.8635C33.2224 18.8145 33.1952 18.7478 33.1959 18.6786C33.1966 18.6093 33.225 18.5432 33.2748 18.4951C35.4807 16.4432 38.8968 16.4432 41.1027 18.4951C41.1525 18.5432 41.1809 18.6093 41.1816 18.6785C41.1823 18.7477 41.1552 18.8144 41.1064 18.8635L40.1796 19.7999C40.0841 19.8956 39.9298 19.8976 39.8318 19.8045ZM38.9689 21.0203C39.0185 20.9716 39.0458 20.9047 39.0444 20.8352C39.043 20.7658 39.013 20.7 38.9614 20.6534C37.9376 19.7875 36.4381 19.7875 35.4142 20.6534C35.3626 20.7 35.3326 20.7657 35.3311 20.8352C35.3296 20.9046 35.3569 20.9716 35.4064 21.0203L37.0099 22.6382C37.0569 22.6857 37.121 22.7125 37.1878 22.7125C37.2547 22.7125 37.3187 22.6857 37.3657 22.6382L38.9689 21.0203ZM272.372 15.5183C271.78 15.5183 271.301 15.9974 271.301 16.5885V20.3343C271.301 20.9253 271.78 21.4045 272.372 21.4045H284.679C285.27 21.4045 285.749 20.9253 285.749 20.3343V16.5885C285.749 15.9974 285.27 15.5183 284.679 15.5183H272.372ZM26.2205 14.1805H25.4178C24.9745 14.1805 24.6151 14.5398 24.6151 14.9831V21.9396C24.6151 22.3829 24.9745 22.7422 25.4178 22.7422H26.2205C26.6638 22.7422 27.0231 22.3829 27.0231 21.9396V14.9831C27.0231 14.5398 26.6638 14.1805 26.2205 14.1805ZM21.672 16.0533H22.4747C22.918 16.0533 23.2774 16.4127 23.2774 16.856V21.9396C23.2774 22.3829 22.918 22.7422 22.4747 22.7422H21.672C21.2287 22.7422 20.8694 22.3829 20.8694 21.9396V16.856C20.8694 16.4127 21.2287 16.0533 21.672 16.0533ZM18.7289 17.9263H17.9262C17.4829 17.9263 17.1236 18.2856 17.1236 18.7289V21.9396C17.1236 22.3829 17.4829 22.7423 17.9262 22.7423H18.7289C19.1722 22.7423 19.5316 22.3829 19.5316 21.9396V18.7289C19.5316 18.2856 19.1722 17.9263 18.7289 17.9263ZM14.9831 19.5316H14.1805C13.7372 19.5316 13.3778 19.891 13.3778 20.3343V21.9396C13.3778 22.3829 13.7372 22.7423 14.1805 22.7423H14.9831C15.4264 22.7423 15.7858 22.3829 15.7858 21.9396V20.3343C15.7858 19.891 15.4264 19.5316 14.9831 19.5316ZM145.771 18.8266C145.771 21.4933 144.575 23.068 142.561 23.068C141.113 23.068 140.01 22.2121 139.774 20.9117H141.184C141.365 21.5097 141.892 21.8829 142.572 21.8829C143.73 21.8829 144.416 20.8019 144.416 18.9912H144.322C143.949 19.7429 143.198 20.1764 142.27 20.1764C140.761 20.1764 139.664 19.068 139.664 17.5427C139.664 15.9185 140.882 14.7608 142.605 14.7608C143.763 14.7608 144.679 15.3095 145.211 16.3245C145.579 16.9775 145.771 17.8225 145.771 18.8266ZM141.052 17.4988C141.052 18.4041 141.7 19.0516 142.611 19.0516C143.516 19.0516 144.18 18.4041 144.18 17.5207C144.18 16.6263 143.499 15.9405 142.616 15.9405C141.733 15.9405 141.052 16.6154 141.052 17.4988ZM148.032 17.9213C148.553 17.9213 148.91 17.5536 148.91 17.0598C148.91 16.5605 148.553 16.1929 148.032 16.1929C147.516 16.1929 147.154 16.5605 147.154 17.0598C147.154 17.5536 147.516 17.9213 148.032 17.9213ZM148.91 21.1696C148.91 21.6634 148.553 22.0365 148.032 22.0365C147.516 22.0365 147.154 21.6634 147.154 21.1696C147.154 20.6702 147.516 20.3026 148.032 20.3026C148.553 20.3026 148.91 20.6702 148.91 21.1696ZM155.511 22.876V21.4H156.581V20.2039H155.511V14.9583H153.514C152.114 17.0653 151.001 18.8266 150.287 20.138V21.4H154.156V22.876H155.511ZM151.599 20.2368H154.178V16.1106H154.101C153.343 17.2299 152.52 18.5303 151.599 20.1545V20.2368ZM161.141 22.876V14.9583H159.731L157.662 16.4069V17.7676L159.632 16.3849H159.725V22.876H161.141Z" fill="#FFA000"/>
</g>
<defs>
<clipPath id="clip0_7638_302">
<rect width="301" height="535.379" rx="32.1067" fill="white"/>
</clipPath>
</defs>
</svg>
