<svg width="304" height="162" viewBox="0 0 304 162" fill="none" xmlns="http://www.w3.org/2000/svg">
<path d="M114.771 103.352C120.678 103.352 125.467 98.5779 125.467 92.6887C125.467 86.7995 120.678 82.0254 114.771 82.0254C108.864 82.0254 104.076 86.7995 104.076 92.6887C104.076 98.5779 108.864 103.352 114.771 103.352Z" fill="#333333"/>
<path d="M74.046 84.076C71.9892 84.076 69.9323 83.6658 67.8755 82.4354C46.8958 69.7215 42.3708 52.4962 41.9594 51.676C41.9594 50.8557 41.548 50.4456 41.9594 49.6253C41.9594 48.8051 44.0162 31.9899 59.6482 18.8658C41.548 15.5848 16.866 16.4051 6.58187 17.6354C3.29093 18.0456 0.411366 15.5848 -2.94298e-07 12.3038C-0.411367 9.02279 2.05683 6.1519 5.34777 5.74177C5.75913 5.74177 18.5115 4.51139 33.7321 4.51139C51.0095 4.92152 64.1732 6.56203 74.046 10.2532C83.9188 6.56203 99.1394 3.28101 118.885 1.64051C136.574 0.410127 151.383 0 152.206 0C153.028 0 167.838 0.410127 185.526 2.05063C205.272 4.10127 220.081 6.97215 230.365 10.6633C239.827 6.97215 253.402 4.92152 270.679 4.92152C285.9 4.51139 298.652 5.74177 299.064 6.1519C301.943 6.1519 304.411 9.02279 304 12.3038C303.589 15.5848 300.709 18.0456 297.418 17.6354C287.134 16.8152 262.452 15.5848 243.94 18.8658C259.984 31.9899 261.629 48.8051 261.629 49.6253C261.629 50.4456 261.629 50.8557 261.629 51.676C261.629 52.4962 256.693 69.7215 235.713 82.4354C232.011 84.8962 227.074 84.8962 223.372 82.4354C202.392 69.7215 197.867 52.4962 197.456 51.676C197.456 50.8557 197.045 50.4456 197.456 49.6253C197.456 48.8051 199.513 31.5797 215.556 18.4557C194.988 13.5342 164.135 11.8937 151.383 11.4835C138.631 11.4835 107.778 13.1241 87.2097 18.4557C103.253 31.5797 105.31 48.8051 105.31 49.6253C105.31 50.4456 105.31 50.8557 105.31 51.676C105.31 52.4962 100.373 69.7215 79.3938 82.4354C78.1597 83.6658 76.1028 84.076 74.046 84.076ZM53.889 50.0354C55.1231 53.3165 59.6482 63.9798 74.046 72.1823C88.0325 63.9798 92.9689 52.9063 94.203 50.0354C93.7916 48.3949 92.9689 45.1139 91.3234 41.0127C87.6211 33.6304 82.2733 27.8886 74.8687 23.7873C74.8687 23.7873 74.8687 23.7873 74.4574 23.7873H74.046C58.4141 32.4 54.7118 45.9342 53.889 50.0354ZM210.208 50.0354C211.442 53.3165 215.968 63.9798 230.365 72.1823C244.352 63.9798 249.288 52.9063 250.522 50.0354C250.111 48.3949 249.288 45.1139 247.643 41.0127C243.94 33.6304 238.593 27.8886 231.188 23.7873C231.188 23.7873 231.188 23.7873 230.777 23.7873C230.777 23.7873 230.777 23.7873 230.365 23.7873C214.322 32.4 210.62 45.9342 210.208 50.0354Z" fill="#333333"/>
<path d="M187.172 162C175.242 162 166.192 157.899 160.022 153.797C156.731 151.337 153.851 148.876 151.794 146.415C149.737 148.876 146.858 151.337 143.567 153.797C134.928 159.539 120.53 165.691 99.1394 159.539C83.9188 155.028 73.2233 147.235 67.8755 136.162C59.6482 119.757 66.23 102.121 66.23 101.301C67.4641 98.4304 70.7551 96.7898 74.046 98.0202C76.9256 99.2506 78.571 102.532 77.3369 105.813C77.3369 105.813 72.4005 119.347 78.571 131.24C82.6847 139.033 90.5007 144.775 102.43 148.056C133.694 157.078 145.624 134.932 146.447 133.701C147.269 131.651 149.326 130.42 151.794 130.42C154.263 130.42 156.319 131.651 157.142 133.701C157.553 134.521 166.192 150.106 187.172 150.106C191.286 150.106 196.222 149.286 201.158 148.056C213.088 144.775 221.315 139.033 225.018 130.83C230.777 118.937 226.252 105.813 225.84 105.403C224.606 102.532 226.252 98.8405 229.131 97.6101C232.011 96.3797 235.713 98.0202 236.947 100.891C237.359 101.711 243.94 119.347 235.302 135.752C229.954 146.825 219.258 154.618 204.038 159.129C198.279 161.18 192.52 162 187.172 162Z" fill="#333333"/>
<path d="M189.64 103.352C195.547 103.352 200.336 98.5779 200.336 92.6887C200.336 86.7995 195.547 82.0254 189.64 82.0254C183.733 82.0254 178.945 86.7995 178.945 92.6887C178.945 98.5779 183.733 103.352 189.64 103.352Z" fill="#333333"/>
<path d="M156.731 106.633C160.022 106.633 162.901 109.094 162.901 113.605C162.901 119.757 157.965 123.448 151.794 125.909C145.624 123.448 140.687 119.757 140.687 113.605C140.687 109.094 143.567 106.633 146.858 106.633C148.915 106.633 150.56 107.453 151.794 109.094C153.028 107.863 154.674 106.633 156.731 106.633Z" fill="#333333"/>
</svg>
