<svg width="32" height="24" viewBox="0 0 32 24" fill="none" xmlns="http://www.w3.org/2000/svg">
<path d="M31.6812 5.5999C31.6812 5.5999 31.3688 3.39365 30.4063 2.4249C29.1875 1.1499 27.825 1.14365 27.2 1.06865C22.725 0.743652 16.0063 0.743652 16.0063 0.743652H15.9937C15.9937 0.743652 9.275 0.743652 4.8 1.06865C4.175 1.14365 2.8125 1.1499 1.59375 2.4249C0.63125 3.39365 0.325 5.5999 0.325 5.5999C0.325 5.5999 0 8.19365 0 10.7812V13.2062C0 15.7937 0.31875 18.3874 0.31875 18.3874C0.31875 18.3874 0.63125 20.5937 1.5875 21.5624C2.80625 22.8374 4.40625 22.7937 5.11875 22.9312C7.68125 23.1749 16 23.2499 16 23.2499C16 23.2499 22.725 23.2374 27.2 22.9187C27.825 22.8437 29.1875 22.8374 30.4063 21.5624C31.3688 20.5937 31.6812 18.3874 31.6812 18.3874C31.6812 18.3874 32 15.7999 32 13.2062V10.7812C32 8.19365 31.6812 5.5999 31.6812 5.5999ZM12.6938 16.1499V7.15615L21.3375 11.6687L12.6938 16.1499Z" fill="white"/>
</svg>
