<svg width="5214" height="1278" viewBox="0 0 5214 1278" fill="none" xmlns="http://www.w3.org/2000/svg">
<mask id="mask0_7627_312" style="mask-type:alpha" maskUnits="userSpaceOnUse" x="0" y="0" width="5214" height="1278">
<rect width="5214" height="1278" transform="matrix(1 -8.74228e-08 -8.74228e-08 -1 0 1278)" fill="white"/>
</mask>
<g mask="url(#mask0_7627_312)">
<rect width="5212" height="1427" transform="matrix(-1 0 0 1 5212 0)" fill="white"/>
<circle cx="491" cy="491" r="491" transform="matrix(1 -8.74228e-08 -8.74228e-08 -1 1648 366.01)" fill="#FEF0E5"/>
<circle cx="491" cy="491" r="491" transform="matrix(1 -8.74228e-08 -8.74228e-08 -1 858 366.01)" fill="#FEF0E5"/>
<circle cx="491" cy="491" r="491" transform="matrix(1 -8.74228e-08 -8.74228e-08 -1 68 366.01)" fill="#FEF0E5"/>
<circle cx="491" cy="491" r="491" transform="matrix(1 -8.74228e-08 -8.74228e-08 -1 -514 366.011)" fill="#FEF0E5"/>
<circle cx="491" cy="491" r="491" transform="matrix(1 -8.74228e-08 -8.74228e-08 -1 2443 366.01)" fill="#FEF0E5"/>
<circle cx="491" cy="491" r="491" transform="matrix(1 -8.74228e-08 -8.74228e-08 -1 3238 366.01)" fill="#FEF0E5"/>
<circle cx="491" cy="491" r="491" transform="matrix(1 -8.74228e-08 -8.74228e-08 -1 4033 366.01)" fill="#FEF0E5"/>
<circle cx="491" cy="491" r="491" transform="matrix(1 -8.74228e-08 -8.74228e-08 -1 4700 366.01)" fill="#FEF0E5"/>
</g>
</svg>
