<svg width="28" height="32" viewBox="0 0 28 32" fill="none" xmlns="http://www.w3.org/2000/svg">
<path d="M27.4132 24.9377C26.9105 26.0557 26.3154 27.0848 25.626 28.031C24.6862 29.3208 23.9168 30.2136 23.3238 30.7094C22.4045 31.5232 21.4196 31.94 20.3649 31.9637C19.6078 31.9637 18.6947 31.7563 17.6318 31.3356C16.5655 30.9168 15.5855 30.7094 14.6894 30.7094C13.7497 30.7094 12.7418 30.9168 11.6637 31.3356C10.584 31.7563 9.71423 31.9755 9.04922 31.9973C8.03784 32.0387 7.02975 31.6101 6.02351 30.7094C5.38127 30.1702 4.57796 29.2457 3.61562 27.9361C2.58312 26.5377 1.73425 24.916 1.06924 23.0672C0.357028 21.0702 0 19.1364 0 17.2643C0 15.1197 0.481372 13.2701 1.44555 11.7201C2.20331 10.4751 3.2114 9.49305 4.47311 8.77208C5.73481 8.05112 7.09808 7.68372 8.5662 7.66022C9.36952 7.66022 10.423 7.89942 11.7321 8.36953C13.0375 8.84122 13.8757 9.08042 14.2432 9.08042C14.5179 9.08042 15.449 8.80072 17.0276 8.24311C18.5203 7.72599 19.7802 7.51188 20.8123 7.59622C23.609 7.8135 25.7101 8.8748 27.1074 10.7868C24.6062 12.2458 23.3689 14.2892 23.3935 16.9105C23.4161 18.9523 24.1856 20.6514 25.6978 22.0005C26.3831 22.6267 27.1485 23.1106 28 23.4543C27.8153 23.9698 27.6204 24.4637 27.4132 24.9377ZM20.999 0.640182C20.999 2.24055 20.3916 3.7348 19.181 5.11787C17.7201 6.76207 15.953 7.71216 14.0367 7.56224C14.0123 7.37025 13.9982 7.16818 13.9982 6.95584C13.9982 5.41949 14.6929 3.7753 15.9267 2.43094C16.5427 1.75027 17.3261 1.1843 18.2761 0.73282C19.2241 0.288073 20.1208 0.0421187 20.9641 0C20.9887 0.213944 20.999 0.427922 20.999 0.640182Z" fill="#FFA000"/>
</svg>
