<svg width="1887" height="1668" viewBox="0 0 1887 1668" fill="none" xmlns="http://www.w3.org/2000/svg">
<g clip-path="url(#clip0_7622_318)">
<path d="M1636.33 1319.75C1643.23 1353.66 1641.49 1388.44 1629.91 1422.58C1606.76 1490.86 1551.49 1540.07 1480.33 1554.56L1342.23 1582.68C1271.92 1597 1200.96 1573.49 1152.95 1519.71C1128.94 1492.81 1113.56 1460.63 1106.83 1427.57C1099.93 1393.67 1101.67 1358.88 1113.25 1324.75L1157.53 1191.25C1178.5 1129.6 1224.8 1083.98 1285.27 1064.6C1292.72 1062.2 1300.34 1060.65 1307.12 1059.27C1377.44 1044.95 1448.4 1068.46 1496.41 1122.25L1589.37 1227.79C1613.37 1254.69 1629.6 1286.69 1636.33 1319.75Z" fill="#FFF0E3" fill-opacity="0.5"/>
<path fill-rule="evenodd" clip-rule="evenodd" d="M1247.61 918.664C1240.49 1013.69 1193.16 1054.23 1124.12 1048.86C1055.09 1043.5 999.664 1000.93 1006.78 905.906C1011.96 835.994 1089.96 742.424 1128.37 718.713C1141.73 710.695 1158.69 711.655 1170.43 721.625C1204.61 750.858 1253.63 848.579 1247.61 918.664Z" fill="#FFF0E3" fill-opacity="0.5"/>
<path fill-rule="evenodd" clip-rule="evenodd" d="M1076.81 1189.15C1093.26 1282.91 1057.83 1334.26 989.713 1346.37C920.573 1357.8 856.718 1330.19 840.273 1236.43C827.986 1167.43 880.493 1056.98 911.069 1025.15C922.051 1014.09 938.995 1010.64 952.754 1017.55C993.013 1037.6 1064.35 1119.3 1076.81 1189.15Z" fill="#FFF0E3" fill-opacity="0.5"/>
<path fill-rule="evenodd" clip-rule="evenodd" d="M1302.32 916.468C1346.03 1001.14 1405.44 1019.94 1466.88 988.012C1528.32 956.08 1562.69 895.23 1518.98 810.554C1486.88 748.233 1378.49 692.615 1334.72 685.638C1319.28 683.485 1304.05 691.001 1297.15 704.766C1277.12 745.04 1270.22 854.147 1302.32 916.468Z" fill="#FFF0E3" fill-opacity="0.5"/>
<path fill-rule="evenodd" clip-rule="evenodd" d="M1562.25 1090.3C1583.78 1183.03 1636.46 1216.44 1703.89 1200.94C1771.33 1185.44 1819.3 1135.07 1798.62 1042.17C1782.94 973.855 1691.43 892.734 1650.67 874.55C1636.23 868.661 1619.29 872.111 1609.33 883.851C1580.12 918.049 1546.4 1021.14 1562.25 1090.3Z" fill="#FFF0E3" fill-opacity="0.5"/>
</g>
<g clip-path="url(#clip1_7622_318)">
<path d="M555.126 657.75C545.977 680.517 531.368 700.428 511.188 716.117C470.828 747.494 418.898 755.051 371.115 735.848L278.394 698.586C231.18 679.612 198.352 637.993 190.929 587.412C187.217 562.122 190.678 537.07 199.598 514.873C208.747 492.107 223.356 472.196 243.536 456.507L321.864 394.773C358.347 366.465 403.562 357.531 446.918 369.666C452.266 371.155 457.385 373.212 461.936 375.041C509.15 394.015 541.978 435.634 549.401 486.215L563.227 584.982C566.938 610.273 564.046 635.553 555.126 657.75Z" fill="#FFF0E3" fill-opacity="0.5"/>
<path fill-rule="evenodd" clip-rule="evenodd" d="M481.597 268.576C440.286 322.048 396.443 327.567 357.675 297.443C318.906 267.319 302.709 220.484 344.02 167.012C374.375 127.647 457.076 102.708 489.067 103.665C500.11 104.136 509.774 111.326 512.829 121.808C521.654 152.459 512.521 229.44 481.597 268.576Z" fill="#FFF0E3" fill-opacity="0.5"/>
<path fill-rule="evenodd" clip-rule="evenodd" d="M274.902 362.018C248.035 423.939 207.019 440.509 161.969 421.083C116.579 400.858 89.5564 359.589 116.423 297.668C136.088 252.024 210.286 207.141 240.811 200.236C251.631 197.974 263.008 202.546 268.455 212.007C284.459 239.593 294.795 315.804 274.902 362.018Z" fill="#FFF0E3" fill-opacity="0.5"/>
<path fill-rule="evenodd" clip-rule="evenodd" d="M515.727 282.292C508.547 349.481 536.379 383.803 585.212 388.885C634.045 393.966 678.147 371.363 685.326 304.175C690.653 254.751 648.208 179.519 625.021 158.302C616.723 151 604.771 149.503 595.312 154.956C567.731 170.976 521.054 232.869 515.727 282.292Z" fill="#FFF0E3" fill-opacity="0.5"/>
<path fill-rule="evenodd" clip-rule="evenodd" d="M600.85 493.008C577.396 556.301 595.54 596.646 641.505 613.796C687.47 630.946 735.535 619.853 759.557 556.789C776.947 510.23 754.441 426.484 737.412 399.808C731.166 390.688 719.789 386.115 709.31 389.176C678.668 398.016 618.468 445.88 600.85 493.008Z" fill="#FFF0E3" fill-opacity="0.5"/>
</g>
<defs>
<clipPath id="clip0_7622_318">
<rect width="977.836" height="892.73" fill="white" transform="translate(750 793.111) rotate(-11.5097)"/>
</clipPath>
<clipPath id="clip1_7622_318">
<rect width="693.372" height="633.024" fill="white" transform="translate(236.049) rotate(21.894)"/>
</clipPath>
</defs>
</svg>
