<svg width="408" height="141" viewBox="0 0 408 141" fill="none" xmlns="http://www.w3.org/2000/svg">
<g filter="url(#filter0_d_98_1485)">
<path d="M10.6721 37.4948C9.77595 36.6992 9.77595 35.3008 10.6721 34.5052L18 28L18 44L10.6721 37.4948Z" fill="#FFA000"/>
<rect x="18" y="4" width="380" height="98" rx="12" fill="#FFA000"/>
<path d="M50.486 43.174H56.588V41.518C54.266 41.068 52.718 39.286 52.718 36.892C52.718 34.12 54.806 32.14 57.776 32.14C60.782 32.14 62.87 34.12 62.87 36.892C62.87 39.268 61.34 41.05 59 41.518V43.174H65.138V45.118H50.486V43.174ZM55.094 36.892C55.094 38.476 56.156 39.664 57.776 39.664C59.432 39.664 60.494 38.476 60.494 36.892C60.494 35.29 59.432 34.102 57.776 34.102C56.156 34.102 55.094 35.29 55.094 36.892ZM68.1294 42.904H76.2474V41.986H68.0934V40.186H78.6414V44.596H70.5414V45.55H79.1094V47.368H68.1294V42.904ZM66.0954 39.25V37.36H80.7474V39.25H66.0954ZM68.3274 31.492H70.7034V34.534H78.9114V36.424H68.3274V31.492ZM81.6868 39.52H96.3388V41.428H81.6868V39.52ZM83.9368 42.49H86.3308V45.352H94.3228V47.278H83.9368V42.49ZM84.5308 34.93C84.5308 32.77 86.3668 31.294 88.9948 31.294C91.6408 31.294 93.4948 32.77 93.4948 34.93C93.4948 37.018 91.6408 38.53 88.9948 38.53C86.3668 38.53 84.5308 37.018 84.5308 34.93ZM86.8168 34.93C86.8168 35.92 87.6808 36.622 89.0128 36.622C90.3448 36.622 91.2088 35.92 91.2088 34.93C91.2088 33.85 90.3448 33.202 89.0128 33.202C87.6808 33.202 86.8168 33.85 86.8168 34.93ZM101.463 40.564H116.115V42.49H109.923V47.566H107.547V42.49H101.463V40.564ZM103.533 32.122H113.973V38.926H103.533V32.122ZM111.615 34.012H105.891V37.054H111.615V34.012ZM117.054 39.376H131.706V41.284H117.054V39.376ZM119.178 42.454H121.572V45.352H129.78V47.278H119.178V42.454ZM119.448 38.296L118.296 36.496L122.31 33.94C123.03 33.454 123.21 32.914 123.21 32.662V31.51H125.55V32.662C125.55 32.914 125.73 33.454 126.468 33.94L130.482 36.496L129.33 38.296L125.316 35.74C124.938 35.488 124.632 35.236 124.38 34.966C124.146 35.236 123.84 35.488 123.462 35.74L119.448 38.296ZM147.882 31.348H150.294V39.43H147.882V31.348ZM139.944 40.078H150.294V44.56H142.32V45.514H150.636V47.368H139.98V42.832H147.9V41.914H139.944V40.078ZM141.474 39.52C138.9 39.52 137.118 37.882 137.118 35.56C137.118 33.238 138.9 31.6 141.474 31.6C144.012 31.6 145.794 33.238 145.794 35.56C145.794 37.882 144.012 39.52 141.474 39.52ZM141.474 37.666C142.68 37.666 143.454 36.838 143.454 35.56C143.454 34.3 142.68 33.454 141.474 33.454C140.25 33.454 139.458 34.3 139.458 35.56C139.458 36.838 140.25 37.666 141.474 37.666ZM161.241 35.002H163.581V31.348H165.993V40.816H163.581V36.946H161.241V35.002ZM154.149 40.042L152.601 38.422L155.535 35.596C156.075 35.092 156.183 34.75 156.183 34.318V33.994H153.105V32.05H161.385V33.994H158.469V34.318C158.469 34.786 158.559 35.092 159.117 35.596L162.051 38.422L160.503 40.042L157.569 37.216L157.335 36.964L157.083 37.216L154.149 40.042ZM161.115 47.944C158.595 47.944 156.813 46.468 156.813 44.416C156.813 42.328 158.595 40.87 161.115 40.87C163.653 40.87 165.435 42.328 165.435 44.416C165.435 46.468 163.653 47.944 161.115 47.944ZM161.115 46.036C162.303 46.036 163.095 45.388 163.095 44.416C163.095 43.426 162.303 42.778 161.115 42.778C159.927 42.778 159.171 43.426 159.171 44.416C159.171 45.388 159.927 46.036 161.115 46.036ZM179.065 31.312H181.495V47.026H179.065V31.312ZM172.729 42.112C170.065 42.112 168.175 40.168 168.175 37.414C168.175 34.624 170.065 32.662 172.729 32.662C175.375 32.662 177.247 34.624 177.247 37.414C177.247 40.168 175.375 42.112 172.729 42.112ZM172.729 40.114C174.043 40.114 174.889 39.034 174.889 37.414C174.889 35.758 174.043 34.678 172.729 34.678C171.397 34.678 170.551 35.758 170.551 37.414C170.551 39.034 171.397 40.114 172.729 40.114ZM192.45 40.222C189.876 40.222 188.094 38.512 188.094 36.082C188.094 33.634 189.876 31.924 192.45 31.924C194.988 31.924 196.77 33.634 196.77 36.082C196.77 38.512 194.988 40.222 192.45 40.222ZM190.974 47.692L189.138 46.432L191.19 43.408C191.568 42.868 191.676 42.562 191.676 42.346V41.176H194.07V42.346C194.07 42.616 194.16 42.886 194.52 43.336L195.744 44.812L197.022 43.318C197.364 42.904 197.436 42.652 197.436 42.346V41.176H199.794V42.346C199.794 42.544 199.92 42.832 200.316 43.408L202.35 46.45L200.514 47.674L198.624 44.866L196.284 47.602H195.168L192.918 44.848L190.974 47.692ZM192.45 38.278C193.656 38.278 194.43 37.396 194.43 36.082C194.43 34.75 193.656 33.868 192.45 33.868C191.226 33.868 190.434 34.75 190.434 36.082C190.434 37.396 191.226 38.278 192.45 38.278ZM198.858 40.492V31.348H201.288V40.492H198.858ZM213.73 31.312H216.124V37.432H218.338V39.394H216.124V46.972H213.73V31.312ZM212.272 41.086V43.066H203.884V32.626H206.296V41.086H212.272ZM219.025 43.354H222.625V39.952C221.761 39.106 221.257 37.954 221.257 36.586C221.257 33.814 223.345 31.834 226.315 31.834C229.321 31.834 231.409 33.814 231.409 36.586C231.409 37.918 230.923 39.07 230.077 39.916V43.354H233.677V45.298H219.025V43.354ZM223.633 36.586C223.633 38.17 224.695 39.358 226.315 39.358C227.971 39.358 229.033 38.17 229.033 36.586C229.033 34.984 227.971 33.796 226.315 33.796C224.695 33.796 223.633 34.984 223.633 36.586ZM225.019 43.354H227.665V41.176C227.233 41.266 226.783 41.32 226.315 41.32C225.865 41.32 225.433 41.266 225.019 41.194V43.354ZM243.067 46.558C242.329 46.558 241.789 46.018 241.789 45.28C241.789 44.524 242.329 44.002 243.067 44.002C243.823 44.002 244.345 44.524 244.345 45.28C244.345 46.018 243.823 46.558 243.067 46.558ZM241.861 42.256C241.843 40.33 242.419 39.142 243.805 38.116C245.083 37.162 245.353 36.658 245.389 35.938C245.461 34.804 244.597 34.012 243.337 34.012C242.401 34.012 241.501 34.696 241.123 35.668L238.927 34.858C239.629 32.986 241.465 31.672 243.337 31.672C246.037 31.672 247.855 33.472 247.729 36.046C247.657 37.378 246.991 38.656 245.209 40.006C244.345 40.636 244.183 40.942 244.201 42.238L241.861 42.256Z" fill="white"/>
<path d="M58.428 61.59H60.29V65.23H61.956V66.756H60.29V70.438H58.428V61.59ZM52.492 69.878H54.368V72.496H60.654V73.98H52.492V69.878ZM51.75 68.674L50.462 67.526L52.66 65.076C53.108 64.6 53.192 64.292 53.192 63.942V62.262H55.04V63.942C55.04 64.306 55.124 64.6 55.558 65.09L57.756 67.526L56.468 68.674L54.27 66.238L54.116 66.056L53.948 66.252L51.75 68.674ZM71.4786 61.604H73.2566V69.248H71.4786V66.21H70.5966V69.178H68.8606V61.8H70.5966V64.726H71.4786V61.604ZM64.9826 69.766H73.2566V74.204H71.3946V71.25H64.9826V69.766ZM63.7086 68.674L62.4766 67.61L64.3386 65.412C64.6886 65.006 64.7726 64.712 64.7726 64.404V64.278H62.7426V62.766H64.7726V61.59H66.4526V62.766H68.3566V64.278H66.4246V64.404C66.4246 64.698 66.5226 64.992 66.8726 65.412L68.7346 67.61L67.5026 68.674L65.6406 66.476L65.5986 66.434L65.5706 66.476L63.7086 68.674ZM74.6593 68.842H86.0553V70.312H81.2533V74.204H79.3913V70.312H74.6593V68.842ZM76.2693 62.08H78.1173V63.438H82.5693V62.08H84.4033V67.624H76.2693V62.08ZM78.1173 64.894V66.14H82.5693V64.894H78.1173ZM95.5219 61.576H97.3839V73.798H95.5219V67.372H93.5479V65.874H95.5219V61.576ZM93.6739 69.178V70.718H87.3599V62.64H93.3659V64.166H89.2219V65.874H93.0439V67.414H89.2219V69.178H93.6739ZM102.405 67.582C104.771 67.12 106.549 66.252 106.549 63.942V63.928H102.713V62.402H108.299V63.942C108.299 67.246 105.555 68.73 102.741 69.29L102.405 67.582ZM104.617 69.878H106.507V72.496H112.849V73.98H104.617V69.878ZM108.719 66.658V65.146H110.833V61.59H112.723V70.424H110.833V66.658H108.719ZM114.56 66.98C117.01 66.532 118.9 65.412 118.942 63.774H114.868V62.248H120.678V63.718V63.774C120.636 66.476 117.766 68.17 114.854 68.688L114.56 66.98ZM120.51 74.512C118.55 74.512 117.178 73.364 117.178 71.768C117.178 70.144 118.55 69.01 120.51 69.01C122.498 69.01 123.884 70.144 123.884 71.768C123.884 73.364 122.498 74.512 120.51 74.512ZM120.51 73.028C121.448 73.028 122.05 72.524 122.05 71.768C122.05 70.998 121.448 70.494 120.51 70.494C119.6 70.494 118.998 70.998 118.998 71.768C118.998 72.524 119.6 73.028 120.51 73.028ZM122.358 68.814V61.59H124.22V64.502H125.886V66.042H124.22V68.814H122.358ZM129.052 74.05V69.15H136.99V74.05H129.052ZM130.872 72.594H135.156V70.62H130.872V72.594ZM126.7 66.994C129.15 66.546 130.998 65.72 131.04 63.662H127.008V62.15H132.79V63.592V63.662C132.748 66.784 129.906 68.184 127.008 68.702L126.7 66.994ZM132.986 66.07V64.558H135.114V61.59H136.99V68.604H135.114V66.07H132.986ZM147.171 61.604H149.061V70.284H147.171V61.604ZM140.927 69.822H142.775V72.496H149.187V73.98H140.927V69.822ZM140.073 68.688L138.841 67.456L141.151 65.16C141.571 64.74 141.655 64.46 141.655 64.124V63.872H139.247V62.36H145.729V63.872H143.433V64.124C143.433 64.46 143.531 64.726 143.951 65.16L146.247 67.456L145.015 68.688L142.719 66.392L142.537 66.196L142.355 66.392L140.073 68.688ZM158.892 61.59H160.74V66.448H162.336V67.988H160.74V73.77H158.892V61.59ZM158.01 62.696V64.18V64.208C157.996 68.114 156.204 70.06 154.86 71.026L153.852 69.612C155 68.772 156.246 67.358 156.26 64.208H154.944V62.696H158.01ZM154.636 62.668V64.18C154.636 67.596 152.788 69.052 151.598 69.878L150.604 68.436C151.752 67.638 152.886 66.686 152.886 64.18H151.29V62.668H154.636ZM171.48 61.604H173.356V73.784H171.48V61.604ZM164.34 70.774L162.94 69.766L165.208 66.588C165.726 65.86 165.824 65.538 165.824 64.992V64.166H163.444V62.654H170.066V64.166H167.686V64.992C167.686 65.538 167.784 65.874 168.288 66.588L170.556 69.766L169.156 70.774L166.888 67.596L166.748 67.4L166.608 67.596L164.34 70.774ZM181.849 68.394C179.847 68.394 178.461 67.064 178.461 65.174C178.461 63.27 179.847 61.94 181.849 61.94C183.823 61.94 185.209 63.27 185.209 65.174C185.209 67.064 183.823 68.394 181.849 68.394ZM181.289 74.218L180.505 72.818L183.375 71.194C183.781 70.956 183.907 70.774 183.935 70.564H180.841V69.164H188.695V70.564H185.615C185.643 70.802 185.755 70.984 186.147 71.18L189.031 72.818L188.247 74.218L185.363 72.608C185.125 72.482 184.915 72.342 184.747 72.188C184.579 72.328 184.383 72.468 184.159 72.594L181.289 74.218ZM181.849 66.882C182.787 66.882 183.389 66.196 183.389 65.174C183.389 64.138 182.787 63.452 181.849 63.452C180.897 63.452 180.281 64.138 180.281 65.174C180.281 66.196 180.897 66.882 181.849 66.882ZM186.833 68.66V61.59H188.709V68.66H186.833ZM198.988 61.604H200.864V73.784H198.988V61.604ZM191.848 70.774L190.448 69.766L192.716 66.588C193.234 65.86 193.332 65.538 193.332 64.992V64.166H190.952V62.654H197.574V64.166H195.194V64.992C195.194 65.538 195.292 65.874 195.796 66.588L198.064 69.766L196.664 70.774L194.396 67.596L194.256 67.4L194.116 67.596L191.848 70.774ZM209.217 68.1C207.215 68.1 205.829 66.826 205.829 65.034C205.829 63.214 207.215 61.94 209.217 61.94C211.191 61.94 212.577 63.214 212.577 65.034C212.577 66.826 211.191 68.1 209.217 68.1ZM207.257 74.05V69.15H209.049V72.44H211.499V74.05H207.257ZM213.851 74.33C212.493 74.33 211.541 73.392 211.527 72.034C211.527 71.642 211.639 71.292 211.807 70.984H211.233V69.64H213.151V68.688H214.565V69.64H216.455V70.984H215.867C216.049 71.292 216.147 71.642 216.147 72.034C216.147 73.392 215.209 74.33 213.851 74.33ZM213.851 72.986C214.299 72.986 214.579 72.608 214.579 72.034C214.579 71.432 214.299 71.04 213.851 71.04C213.403 71.04 213.109 71.432 213.109 72.034C213.109 72.608 213.403 72.986 213.851 72.986ZM209.217 66.658C210.155 66.658 210.757 66.014 210.757 65.034C210.757 64.04 210.155 63.396 209.217 63.396C208.265 63.396 207.649 64.04 207.649 65.034C207.649 66.014 208.265 66.658 209.217 66.658ZM213.795 68.1V61.604H215.671V64.194H217.323V65.706H215.671V68.1H213.795ZM226.958 61.59H228.736V73.77H226.958V61.59ZM224.298 61.856H226.034V73.21H224.298V67.47H222.66C221.792 69.36 220.168 70.34 218.544 70.844L218.04 69.164C219.944 68.576 221.554 67.498 221.582 64.18H218.46V62.682H223.332V64.082V64.18C223.332 64.852 223.262 65.454 223.15 66H224.298V61.856ZM241.303 61.604H243.179V63.984H244.817V65.496H243.179V67.876H241.303V61.604ZM235.171 68.366H243.179V71.852H237.033V72.608H243.487V74.064H235.199V70.494H241.331V69.794H235.171V68.366ZM236.725 67.932C234.723 67.932 233.337 66.658 233.337 64.852C233.337 63.046 234.723 61.772 236.725 61.772C238.699 61.772 240.085 63.046 240.085 64.852C240.085 66.658 238.699 67.932 236.725 67.932ZM236.725 66.49C237.663 66.49 238.265 65.846 238.265 64.852C238.265 63.872 237.663 63.214 236.725 63.214C235.773 63.214 235.157 63.872 235.157 64.852C235.157 65.846 235.773 66.49 236.725 66.49ZM247.48 74.064V69.528H255.32V74.064H247.48ZM249.314 72.594H253.5V70.984H249.314V72.594ZM245.926 64.698H249.664V63.746H245.926V62.22H251.526V66.112H247.788V67.092H252.114V68.618H245.926V64.698ZM253.458 68.912V61.604H255.32V64.544H256.986V66.07H255.32V68.912H253.458ZM257.534 70.732H268.93V72.258H257.534V70.732ZM259.27 65.958C259.27 63.802 260.894 62.262 263.204 62.262C265.542 62.262 267.166 63.802 267.166 65.958C267.166 68.114 265.542 69.64 263.204 69.64C260.894 69.64 259.27 68.114 259.27 65.958ZM261.118 65.958C261.118 67.19 261.944 68.114 263.204 68.114C264.492 68.114 265.318 67.19 265.318 65.958C265.318 64.712 264.492 63.788 263.204 63.788C261.944 63.788 261.118 64.712 261.118 65.958ZM269.675 70.886H274.421V69.402H271.299V65.104H277.683V63.844H271.271V62.374H279.489V66.56H273.105V67.918H279.769V69.402H276.297V70.886H281.071V72.384H269.675V70.886ZM293.092 61.604H294.968V63.984H296.606V65.496H294.968V67.876H293.092V61.604ZM286.96 68.366H294.968V71.852H288.822V72.608H295.276V74.064H286.988V70.494H293.12V69.794H286.96V68.366ZM288.514 67.932C286.512 67.932 285.126 66.658 285.126 64.852C285.126 63.046 286.512 61.772 288.514 61.772C290.488 61.772 291.874 63.046 291.874 64.852C291.874 66.658 290.488 67.932 288.514 67.932ZM288.514 66.49C289.452 66.49 290.054 65.846 290.054 64.852C290.054 63.872 289.452 63.214 288.514 63.214C287.562 63.214 286.946 63.872 286.946 64.852C286.946 65.846 287.562 66.49 288.514 66.49ZM305.863 61.576H307.725V73.798H305.863V68.87H303.847V67.386H305.863V65.482H303.875V63.984H305.863V61.576ZM297.715 62.612H303.525V67.442H299.591V69.374H304.225V70.9H297.743V65.958H301.677V64.096H297.715V62.612ZM318.143 61.59H320.005V73.77H318.143V71.53H315.651V70.116H318.143V61.59ZM317.373 67.904V69.416H314.223V73.406H312.361V69.416H309.435V67.904H317.373ZM310.583 67.288L309.631 65.832L312.025 64.264C312.263 64.11 312.375 63.942 312.417 63.802H309.953V62.29H316.813V63.802H314.321C314.377 63.942 314.489 64.096 314.741 64.264L317.135 65.832L316.183 67.288L313.789 65.72C313.635 65.622 313.495 65.51 313.383 65.398C313.257 65.51 313.131 65.622 312.977 65.72L310.583 67.288ZM321.464 70.942H324.264V68.296C323.592 67.638 323.2 66.742 323.2 65.678C323.2 63.522 324.824 61.982 327.134 61.982C329.472 61.982 331.096 63.522 331.096 65.678C331.096 66.714 330.718 67.61 330.06 68.268V70.942H332.86V72.454H321.464V70.942ZM325.048 65.678C325.048 66.91 325.874 67.834 327.134 67.834C328.422 67.834 329.248 66.91 329.248 65.678C329.248 64.432 328.422 63.508 327.134 63.508C325.874 63.508 325.048 64.432 325.048 65.678ZM326.126 70.942H328.184V69.248C327.848 69.318 327.498 69.36 327.134 69.36C326.784 69.36 326.448 69.318 326.126 69.262V70.942Z" fill="white"/>
</g>
<defs>
<filter id="filter0_d_98_1485" x="0" y="0" width="408" height="157" filterUnits="userSpaceOnUse" color-interpolation-filters="sRGB">
<feFlood flood-opacity="0" result="BackgroundImageFix"/>
<feColorMatrix in="SourceAlpha" type="matrix" values="0 0 0 0 0 0 0 0 0 0 0 0 0 0 0 0 0 0 127 0" result="hardAlpha"/>
<feOffset dy="6"/>
<feGaussianBlur stdDeviation="5"/>
<feColorMatrix type="matrix" values="0 0 0 0 0.6875 0 0 0 0 0.373116 0 0 0 0 0 0 0 0 0.3 0"/>
<feBlend mode="normal" in2="BackgroundImageFix" result="effect1_dropShadow_98_1485"/>
<feBlend mode="normal" in="SourceGraphic" in2="effect1_dropShadow_98_1485" result="shape"/>
</filter>
</defs>
</svg>
